<?xml version="1.0" encoding="iso-8859-1"?>
<!-- Generator: Adobe Illustrator 19.0.0, SVG Export Plug-In . SVG Version: 6.00 Build 0)  -->
<svg version="1.1" id="Layer_1" xmlns="http://www.w3.org/2000/svg" xmlns:xlink="http://www.w3.org/1999/xlink" x="0px" y="0px"
	 viewBox="0 0 426.024 426.024" style="enable-background:new 0 0 426.024 426.024;" xml:space="preserve">
<g>
	<g id="XMLID_13_">
		<g>
			<path style="fill:#FCD09F;" d="M54.919,227.42L194.24,366.741c11.13,11.13,23.794,20.626,37.604,28.185
				c6.909,3.783,13.52,8.047,19.806,12.749c6.286,4.716,12.233,9.871,17.798,15.436l2.913,2.913L405.8,292.587
				c0,0-12.085-77.28-16.023-94.936c-3.946-17.649-12.806-34.203-26.12-47.518L297.79,84.266
				c-8.408-8.408-22.033-8.415-30.441-0.007c-5.982,5.982-9.157,13.711-9.532,21.538c-0.021,0.516-0.035,1.04-0.035,1.563
				c0.007,8.365,3.189,16.723,9.574,23.108L145.174,8.287C139.645,2.758,132.404,0,125.163,0
				c-7.248,0.007-14.482,2.772-20.011,8.301c-4.702,4.702-7.396,10.649-8.089,16.787c-0.941,8.153,1.676,16.638,7.842,22.96
				L87.92,31.063c-0.085-0.085-0.17-0.17-0.262-0.247c-5.494-5.367-12.622-8.04-19.75-8.04c-7.241,0-14.489,2.765-20.011,8.287
				c-4.702,4.702-7.396,10.649-8.089,16.787c-0.955,8.266,1.747,16.879,8.096,23.229l20.612,20.612
				c-5.523-5.523-12.763-8.28-20.004-8.28s-14.482,2.758-20.004,8.28c-4.702,4.702-7.403,10.656-8.096,16.794
				c-0.955,8.266,1.747,16.879,8.089,23.221l61.455,61.455c-9.525-9.525-25.081-10.034-34.754-0.657
				c-4.978,4.822-7.453,11.201-7.46,17.6C47.749,216.361,50.139,222.64,54.919,227.42z"/>
		</g>
	</g>
	<path style="fill:#E2B991;" d="M267.355,130.468l54.475,54.475c2.093-2.093,3.132-4.829,3.132-7.573
		c-0.007-2.736-1.047-5.473-3.139-7.566l-64.007-64.007c-0.021,0.516-0.035,1.04-0.035,1.563
		C257.788,115.725,260.97,124.083,267.355,130.468z"/>
	<path style="fill:#E2B991;" d="M87.658,30.816l121.318,121.318c2.093-2.093,3.133-4.83,3.133-7.573
		c-0.007-2.736-1.047-5.473-3.14-7.566L97.063,25.088c-0.941,8.153,1.676,16.638,7.842,22.96L87.92,31.063
		C87.835,30.978,87.75,30.894,87.658,30.816z"/>
	<path style="fill:#E2B991;" d="M47.905,71.078L177.397,200.57c2.093-2.093,3.133-4.83,3.132-7.573
		c-0.007-2.737-1.046-5.473-3.139-7.566L39.808,47.85C38.854,56.116,41.555,64.729,47.905,71.078z"/>
	<path style="fill:#E2B991;" d="M28.502,131.706L147.776,250.98c2.093-2.093,3.132-4.829,3.133-7.573
		c-0.007-2.737-1.047-5.473-3.14-7.566L20.412,108.484C19.458,116.75,22.159,125.363,28.502,131.706z"/>
</g>
<g>
</g>
<g>
</g>
<g>
</g>
<g>
</g>
<g>
</g>
<g>
</g>
<g>
</g>
<g>
</g>
<g>
</g>
<g>
</g>
<g>
</g>
<g>
</g>
<g>
</g>
<g>
</g>
<g>
</g>
</svg>
